<svg id="Layer_2" data-name="Layer 2" xmlns="http://www.w3.org/2000/svg" viewBox="0 0 947 330"><defs><style>.cls-1{fill:none;}.cls-1,.cls-3,.cls-4{stroke:#000;stroke-miterlimit:10;}.cls-2,.cls-3{fill-rule:evenodd;}</style></defs><title>pinpal logo</title><rect class="cls-1" x="198.16" y="76.4" width="63.54" height="187.24"/><rect x="198.16" y="76.4" width="63.54" height="187.24"/><path class="cls-1" d="M648.31,390.41V492.33H586.77V386.13a30.06,30.06,0,0,0-56.42-.65V492.33H468.81V305.09h61.54v5.51a90.06,90.06,0,0,1,118,79.81Z" transform="translate(-197.94 -228.69)"/><path class="cls-2" d="M648.31,390.41V492.33H586.77V386.13a30.06,30.06,0,0,0-56.42-.65V492.33H468.81V305.09h61.54v5.51a90.06,90.06,0,0,1,118,79.81Z" transform="translate(-197.94 -228.69)"/><path class="cls-1" d="M752.24,305.09a93.39,93.39,0,0,0-32.07,5.64v-5.64H658.62v93.62a93.62,93.62,0,1,0,93.62-93.62Zm.2,62.1a32,32,0,1,1-32,32A32,32,0,0,1,752.44,367.19Z" transform="translate(-197.94 -228.69)"/><path class="cls-2" d="M752.24,305.09a93.39,93.39,0,0,0-32.07,5.64v-5.64H658.62v93.62a93.62,93.62,0,1,0,93.62-93.62Zm.2,62.1a32,32,0,1,1-32,32A32,32,0,0,1,752.44,367.19Z" transform="translate(-197.94 -228.69)"/><path class="cls-1" d="M980.9,305.09l0,5.36a102.72,102.72,0,0,0-32.65-5.11,93.66,93.66,0,0,0-92.69,106.83,92.66,92.66,0,0,0,6.4,23.16,93.67,93.67,0,0,0,79.41,57c2.27.17,4.57.25,6.88.25s4.61-.08,6.88-.25a93.52,93.52,0,0,0,86.73-92.81v-.8l.45-93.63Zm-32.46,126.1a32,32,0,1,1,32-32A32,32,0,0,1,948.44,431.19Z" transform="translate(-197.94 -228.69)"/><path class="cls-2" d="M980.9,305.09l0,5.36a102.72,102.72,0,0,0-32.65-5.11,93.66,93.66,0,0,0-92.69,106.83,92.66,92.66,0,0,0,6.4,23.16,93.67,93.67,0,0,0,79.41,57c2.27.17,4.57.25,6.88.25s4.61-.08,6.88-.25a93.52,93.52,0,0,0,86.73-92.81v-.8l.45-93.63Zm-32.46,126.1a32,32,0,1,1,32-32A32,32,0,0,1,948.44,431.19Z" transform="translate(-197.94 -228.69)"/><path class="cls-3" d="M292.17,305.09a93.43,93.43,0,0,0-32.07,5.64v-5.64H198.55v93.62a93.62,93.62,0,1,0,93.62-93.62Zm.27,62.1a32,32,0,1,1-32,32A32,32,0,0,1,292.44,367.19Z" transform="translate(-197.94 -228.69)"/><path class="cls-4" d="M262.44,526.19a32,32,0,0,1-63.89,2.66v-5.32a32,32,0,0,1,28.92-29.2h5.94a32,32,0,0,1,29,31.86Z" transform="translate(-197.94 -228.69)"/><path class="cls-4" d="M914.14,384.09" transform="translate(-197.94 -228.69)"/><path class="cls-4" d="M1042,407.94" transform="translate(-197.94 -228.69)"/><path class="cls-4" d="M1144.44,435.33v57h-59.65a38.49,38.49,0,0,1-23-14.92,37.37,37.37,0,0,1-7.18-19.9c0-.36,0-.73-.06-1.1V305.09h.06V230.63H1114V306.4h-.06V435.33Z" transform="translate(-197.94 -228.69)"/><path class="cls-4" d="M198.44,536.19c0-.9,0-1.78.11-2.66v5.32C198.48,538,198.44,537.09,198.44,536.19Z" transform="translate(-197.94 -228.69)"/><path class="cls-4" d="M233.41,504.33h-5.94c1-.09,2-.14,3-.14S232.43,504.24,233.41,504.33Z" transform="translate(-197.94 -228.69)"/><path class="cls-4" d="M722.44,526.19a32,32,0,0,1-63.82,3.36v-6.72a32,32,0,0,1,28.85-28.5h5.94a32,32,0,0,1,29,31.86Z" transform="translate(-197.94 -228.69)"/><path class="cls-4" d="M658.62,522.83v6.72a31.45,31.45,0,0,1,0-6.72Z" transform="translate(-197.94 -228.69)"/><path class="cls-4" d="M693.41,504.33h-5.94c1-.09,2-.14,3-.14S692.43,504.24,693.41,504.33Z" transform="translate(-197.94 -228.69)"/><circle class="cls-4" cx="229.5" cy="32.5" r="32"/><path class="cls-4" d="M1054.52,454v2.44c0-.4,0-.81,0-1.22S1054.51,454.37,1054.52,454Z" transform="translate(-197.94 -228.69)"/></svg>