<svg width="40" height="40" viewBox="0 0 40 40" fill="none" xmlns="http://www.w3.org/2000/svg">
<circle cx="20" cy="20" r="20" fill="#053DF5"/>
<path d="M31 16C31 20.4183 27.4183 24 23 24C23 25.0506 22.7931 26.0909 22.391 27.0615C21.989 28.0321 21.3997 28.914 20.6569 29.6569C19.914 30.3997 19.0321 30.989 18.0615 31.391C17.0909 31.7931 16.0506 32 15 32V16C15 11.5817 18.5817 8 23 8C27.4183 8 31 11.5817 31 16Z" fill="white"/>
<path d="M15 16C12.2386 16 10 13.7614 10 11C10.6566 11 11.3068 11.1293 11.9134 11.3806C12.5201 11.6319 13.0712 12.0002 13.5355 12.4645C13.9998 12.9288 14.3681 13.4799 14.6194 14.0866C14.8707 14.6932 15 15.3434 15 16Z" fill="white"/>
</svg>
