<svg width="189" height="24" viewBox="0 0 189 24" fill="none" xmlns="http://www.w3.org/2000/svg">
<path d="M8.89233 0C7.10309 0 5.54019 0.366577 4.20365 1.09973C2.8671 1.83288 1.83236 2.87871 1.09942 4.2372C0.366472 5.59569 0 7.18059 0 8.99191V24H5.01204V15.1698H5.10905C5.43241 15.6226 5.83122 16.0216 6.30547 16.3666C6.80129 16.69 7.34022 16.938 7.92226 17.1105C8.52586 17.283 9.1618 17.3693 9.83007 17.3693C11.4037 17.3693 12.7834 17.0135 13.969 16.3019C15.1547 15.5903 16.0817 14.6092 16.7499 13.3585C17.4398 12.1078 17.7847 10.6415 17.7847 8.95957C17.7847 7.66577 17.5799 6.469 17.1703 5.36927C16.7607 4.26954 16.1679 3.32076 15.3918 2.52291C14.6373 1.7035 13.7104 1.07817 12.6109 0.646902C11.5331 0.215634 10.2936 0 8.89233 0ZM8.89233 4.33423C9.66839 4.33423 10.3367 4.5283 10.8972 4.91644C11.4576 5.28302 11.8888 5.80054 12.1906 6.469C12.5139 7.1159 12.6756 7.84906 12.6756 8.66846C12.6756 9.48787 12.5139 10.221 12.1906 10.8679C11.8888 11.5148 11.4576 12.0323 10.8972 12.4205C10.3367 12.7871 9.66839 12.9704 8.89233 12.9704C8.11628 12.9704 7.43722 12.7871 6.85518 12.4205C6.29469 12.0323 5.86355 11.5148 5.56175 10.8679C5.25995 10.221 5.10905 9.48787 5.10905 8.66846C5.10905 7.84906 5.25995 7.1159 5.56175 6.469C5.86355 5.80054 6.29469 5.28302 6.85518 4.91644C7.43722 4.5283 8.11628 4.33423 8.89233 4.33423Z" fill="#0840F7"/>
<path d="M27.4109 17.3693C25.945 17.3693 24.6516 16.9919 23.5306 16.2372C22.4096 15.4825 21.5365 14.469 20.9114 13.1968C20.2862 11.903 19.9736 10.4474 19.9736 8.83019C19.9736 7.14825 20.3401 5.6496 21.0731 4.33423C21.806 2.99731 22.8408 1.9407 24.1773 1.16442C25.5354 0.38814 27.1306 0 28.963 0C30.8169 0 32.3906 0.38814 33.684 1.16442C34.999 1.91914 36.0014 2.96496 36.6912 4.30189C37.4026 5.61725 37.7583 7.09434 37.7583 8.73315V16.9811H32.8433V14.3288H32.7139C32.4121 14.9111 32.0241 15.4394 31.5498 15.9137C31.0756 16.3666 30.4936 16.7224 29.8037 16.9811C29.1355 17.2399 28.3378 17.3693 27.4109 17.3693ZM28.8983 13.035C29.6528 13.035 30.3103 12.8518 30.8708 12.4852C31.4528 12.097 31.8948 11.5687 32.1966 10.9003C32.4984 10.2318 32.6493 9.48787 32.6493 8.66846C32.6493 7.87062 32.4984 7.14825 32.1966 6.50135C31.8948 5.85445 31.4528 5.34771 30.8708 4.98113C30.3103 4.59299 29.6528 4.39892 28.8983 4.39892C28.1223 4.39892 27.4432 4.59299 26.8612 4.98113C26.2791 5.34771 25.8372 5.85445 25.5354 6.50135C25.2336 7.14825 25.0827 7.87062 25.0827 8.66846C25.0827 9.48787 25.2336 10.2318 25.5354 10.9003C25.8372 11.5687 26.2791 12.097 26.8612 12.4852C27.4432 12.8518 28.1223 13.035 28.8983 13.035Z" fill="#0840F7"/>
<path d="M41.4648 16.9811V7.43935C41.4648 6.0593 41.7989 4.80863 42.4672 3.68733C43.1355 2.56604 44.084 1.67116 45.3128 1.0027C46.5631 0.334232 48.0397 0 49.7428 0C51.4673 0 52.9332 0.334232 54.1404 1.0027C55.3692 1.67116 56.3069 2.56604 56.9536 3.68733C57.6003 4.80863 57.9237 6.0593 57.9237 7.43935V16.9811H52.9117V7.56873C52.9117 6.98652 52.7715 6.45822 52.4913 5.98383C52.2111 5.48787 51.823 5.09973 51.3272 4.81941C50.853 4.51752 50.314 4.36658 49.7104 4.36658C49.0853 4.36658 48.5248 4.51752 48.029 4.81941C47.5547 5.09973 47.1775 5.48787 46.8972 5.98383C46.617 6.45822 46.4768 6.98652 46.4768 7.56873V16.9811H41.4648Z" fill="#0840F7"/>
<path d="M64.1968 23.5472V19.2453H72.4748C72.7982 19.2453 73.0676 19.1375 73.2832 18.9218C73.4988 18.7278 73.6066 18.4798 73.6066 18.1779V14.5229H73.5095C73.0784 15.0189 72.6149 15.4394 72.1191 15.7844C71.6448 16.1294 71.1059 16.3881 70.5023 16.5606C69.9203 16.7332 69.2628 16.8194 68.5298 16.8194C67.0639 16.8194 65.749 16.4744 64.5849 15.7844C63.4423 15.0728 62.5369 14.0916 61.8687 12.841C61.222 11.5903 60.8986 10.1671 60.8986 8.57143C60.8986 6.99731 61.2327 5.56334 61.901 4.26954C62.5908 2.97574 63.5932 1.9407 64.9082 1.16442C66.2232 0.38814 67.8292 0 69.7263 0C71.5371 0 73.1 0.377359 74.4149 1.13208C75.7515 1.86523 76.7862 2.91105 77.5192 4.26954C78.2521 5.60647 78.6186 7.18059 78.6186 8.99191V18.6954C78.6186 20.1833 78.1767 21.3585 77.2928 22.221C76.4305 23.1051 75.2341 23.5472 73.7036 23.5472H64.1968ZM69.7586 12.6146C70.5346 12.6146 71.2029 12.442 71.7634 12.097C72.3239 11.7305 72.755 11.2453 73.0568 10.6415C73.3586 10.0377 73.5095 9.36927 73.5095 8.63612C73.5095 7.85984 73.3586 7.14825 73.0568 6.50135C72.755 5.85445 72.3239 5.34771 71.7634 4.98113C71.2029 4.59299 70.5346 4.39892 69.7586 4.39892C69.0041 4.39892 68.3358 4.58221 67.7538 4.94879C67.1933 5.31536 66.7621 5.81132 66.4603 6.43666C66.1585 7.062 66.0076 7.7628 66.0076 8.53908C66.0076 9.2938 66.1585 9.98383 66.4603 10.6092C66.7621 11.2129 67.1933 11.6981 67.7538 12.0647C68.3358 12.4313 69.0041 12.6146 69.7586 12.6146Z" fill="#0840F7"/>
<path d="M90.8979 16.9811C89.0224 16.9811 87.3732 16.6361 85.9505 15.9461C84.5277 15.2345 83.4175 14.2642 82.6199 13.035C81.8438 11.7844 81.4558 10.3396 81.4558 8.70081C81.4558 6.88949 81.8331 5.33693 82.5876 4.04313C83.3421 2.74933 84.3445 1.75741 85.5948 1.06739C86.8667 0.355795 88.2679 0 89.7984 0C91.5446 0 92.9997 0.366577 94.1637 1.09973C95.3494 1.83288 96.244 2.83558 96.8476 4.10782C97.4512 5.35849 97.753 6.79245 97.753 8.4097C97.753 8.69003 97.7315 9.02426 97.6883 9.4124C97.6668 9.77898 97.6345 10.0701 97.5913 10.2857H86.7265C86.8559 10.8464 87.1038 11.3208 87.4702 11.7089C87.8367 12.097 88.3002 12.3881 88.8607 12.5822C89.4212 12.7547 90.0463 12.841 90.7362 12.841H95.8129V16.9811H90.8979ZM86.5972 7.14825H92.9027C92.8595 6.80323 92.7949 6.469 92.7086 6.14555C92.6224 5.8221 92.4823 5.54178 92.2883 5.30458C92.1158 5.04582 91.911 4.83019 91.6739 4.65768C91.4368 4.46361 91.1565 4.31267 90.8332 4.20485C90.5314 4.09704 90.1865 4.04313 89.7984 4.04313C89.3026 4.04313 88.8607 4.12938 88.4727 4.30189C88.0846 4.47439 87.7613 4.71159 87.5026 5.01348C87.2439 5.2938 87.0391 5.62803 86.8882 6.01617C86.7589 6.38275 86.6619 6.76011 86.5972 7.14825Z" fill="#0840F7"/>
<path d="M107.335 17.3693C105.869 17.3693 104.575 16.9919 103.454 16.2372C102.333 15.4825 101.46 14.469 100.835 13.1968C100.21 11.903 99.8973 10.4474 99.8973 8.83019C99.8973 7.14825 100.264 5.6496 100.997 4.33423C101.73 2.99731 102.764 1.9407 104.101 1.16442C105.459 0.38814 107.054 0 108.887 0C110.741 0 112.314 0.38814 113.608 1.16442C114.923 1.91914 115.925 2.96496 116.615 4.30189C117.326 5.61725 117.682 7.09434 117.682 8.73315V16.9811H112.767V14.3288H112.638C112.336 14.9111 111.948 15.4394 111.473 15.9137C110.999 16.3666 110.417 16.7224 109.727 16.9811C109.059 17.2399 108.261 17.3693 107.335 17.3693ZM108.822 13.035C109.576 13.035 110.234 12.8518 110.794 12.4852C111.376 12.097 111.818 11.5687 112.12 10.9003C112.422 10.2318 112.573 9.48787 112.573 8.66846C112.573 7.87062 112.422 7.14825 112.12 6.50135C111.818 5.85445 111.376 5.34771 110.794 4.98113C110.234 4.59299 109.576 4.39892 108.822 4.39892C108.046 4.39892 107.367 4.59299 106.785 4.98113C106.203 5.34771 105.761 5.85445 105.459 6.50135C105.157 7.14825 105.006 7.87062 105.006 8.66846C105.006 9.48787 105.157 10.2318 105.459 10.9003C105.761 11.5687 106.203 12.097 106.785 12.4852C107.367 12.8518 108.046 13.035 108.822 13.035Z" fill="#0840F7"/>
<path d="M123.846 17.3693C122.984 17.3693 122.24 17.0674 121.615 16.4636C121.011 15.8383 120.709 15.1051 120.709 14.2642C120.709 13.4016 121.011 12.6685 121.615 12.0647C122.24 11.4394 122.984 11.1267 123.846 11.1267C124.687 11.1267 125.409 11.4394 126.012 12.0647C126.638 12.6685 126.95 13.4016 126.95 14.2642C126.95 14.8248 126.81 15.3423 126.53 15.8167C126.25 16.2911 125.872 16.6685 125.398 16.9488C124.945 17.2291 124.428 17.3693 123.846 17.3693Z" fill="#0840F7"/>
<path d="M136.67 17.3693C135.204 17.3693 133.911 16.9919 132.79 16.2372C131.669 15.4825 130.796 14.469 130.171 13.1968C129.546 11.903 129.233 10.4474 129.233 8.83019C129.233 7.14825 129.6 5.6496 130.333 4.33423C131.066 2.99731 132.1 1.9407 133.437 1.16442C134.795 0.38814 136.39 0 138.222 0C140.076 0 141.65 0.38814 142.944 1.16442C144.258 1.91914 145.261 2.96496 145.951 4.30189C146.662 5.61725 147.018 7.09434 147.018 8.73315V16.9811H142.103V14.3288H141.973C141.672 14.9111 141.284 15.4394 140.809 15.9137C140.335 16.3666 139.753 16.7224 139.063 16.9811C138.395 17.2399 137.597 17.3693 136.67 17.3693ZM138.158 13.035C138.912 13.035 139.57 12.8518 140.13 12.4852C140.712 12.097 141.154 11.5687 141.456 10.9003C141.758 10.2318 141.909 9.48787 141.909 8.66846C141.909 7.87062 141.758 7.14825 141.456 6.50135C141.154 5.85445 140.712 5.34771 140.13 4.98113C139.57 4.59299 138.912 4.39892 138.158 4.39892C137.382 4.39892 136.703 4.59299 136.121 4.98113C135.539 5.34771 135.097 5.85445 134.795 6.50135C134.493 7.14825 134.342 7.87062 134.342 8.66846C134.342 9.48787 134.493 10.2318 134.795 10.9003C135.097 11.5687 135.539 12.097 136.121 12.4852C136.703 12.8518 137.382 13.035 138.158 13.035Z" fill="#0840F7"/>
<path d="M159.487 0C157.698 0 156.135 0.366577 154.799 1.09973C153.462 1.83288 152.427 2.87871 151.694 4.2372C150.961 5.59569 150.595 7.18059 150.595 8.99191V24H155.607V15.1698H155.704C156.027 15.6226 156.426 16.0216 156.9 16.3666C157.396 16.69 157.935 16.938 158.517 17.1105C159.121 17.283 159.757 17.3693 160.425 17.3693C161.999 17.3693 163.378 17.0135 164.564 16.3019C165.75 15.5903 166.677 14.6092 167.345 13.3585C168.035 12.1078 168.38 10.6415 168.38 8.95957C168.38 7.66577 168.175 6.469 167.765 5.36927C167.356 4.26954 166.763 3.32076 165.987 2.52291C165.232 1.7035 164.305 1.07817 163.206 0.646902C162.128 0.215634 160.889 0 159.487 0ZM159.487 4.33423C160.263 4.33423 160.932 4.5283 161.492 4.91644C162.053 5.28302 162.484 5.80054 162.786 6.469C163.109 7.1159 163.271 7.84906 163.271 8.66846C163.271 9.48787 163.109 10.221 162.786 10.8679C162.484 11.5148 162.053 12.0323 161.492 12.4205C160.932 12.7871 160.263 12.9704 159.487 12.9704C158.711 12.9704 158.032 12.7871 157.45 12.4205C156.89 12.0323 156.459 11.5148 156.157 10.8679C155.855 10.221 155.704 9.48787 155.704 8.66846C155.704 7.84906 155.855 7.1159 156.157 6.469C156.459 5.80054 156.89 5.28302 157.45 4.91644C158.032 4.5283 158.711 4.33423 159.487 4.33423Z" fill="#0840F7"/>
<path d="M180.108 0C178.318 0 176.756 0.366577 175.419 1.09973C174.082 1.83288 173.048 2.87871 172.315 4.2372C171.582 5.59569 171.215 7.18059 171.215 8.99191V24H176.227V15.1698H176.324C176.648 15.6226 177.047 16.0216 177.521 16.3666C178.017 16.69 178.556 16.938 179.138 17.1105C179.741 17.283 180.377 17.3693 181.045 17.3693C182.619 17.3693 183.999 17.0135 185.184 16.3019C186.37 15.5903 187.297 14.6092 187.965 13.3585C188.655 12.1078 189 10.6415 189 8.95957C189 7.66577 188.795 6.469 188.386 5.36927C187.976 4.26954 187.383 3.32076 186.607 2.52291C185.853 1.7035 184.926 1.07817 183.826 0.646902C182.748 0.215634 181.509 0 180.108 0ZM180.108 4.33423C180.884 4.33423 181.552 4.5283 182.112 4.91644C182.673 5.28302 183.104 5.80054 183.406 6.469C183.729 7.1159 183.891 7.84906 183.891 8.66846C183.891 9.48787 183.729 10.221 183.406 10.8679C183.104 11.5148 182.673 12.0323 182.112 12.4205C181.552 12.7871 180.884 12.9704 180.108 12.9704C179.332 12.9704 178.653 12.7871 178.071 12.4205C177.51 12.0323 177.079 11.5148 176.777 10.8679C176.475 10.221 176.324 9.48787 176.324 8.66846C176.324 7.84906 176.475 7.1159 176.777 6.469C177.079 5.80054 177.51 5.28302 178.071 4.91644C178.653 4.5283 179.332 4.33423 180.108 4.33423Z" fill="#0840F7"/>
</svg>
